<?xml version="1.0" encoding="UTF-8" standalone="no"?>
<!-- Created with Inkscape (http://www.inkscape.org/) -->

<svg
   width="565.21863"
   height="160.16223"
   viewBox="0 0 529.89244 150.1521"
   id="svg2"
   version="1.1"
   inkscape:version="1.1.2 (0a00cf5339, 2022-02-04)"
   sodipodi:docname="getiplay-bg.svg"
   inkscape:export-filename="/home/flypig/Documents/Development/sailfish/getiplay/qml/images/getiplay-bg.png"
   inkscape:export-xdpi="90"
   inkscape:export-ydpi="90"
   xmlns:inkscape="http://www.inkscape.org/namespaces/inkscape"
   xmlns:sodipodi="http://sodipodi.sourceforge.net/DTD/sodipodi-0.dtd"
   xmlns:xlink="http://www.w3.org/1999/xlink"
   xmlns="http://www.w3.org/2000/svg"
   xmlns:svg="http://www.w3.org/2000/svg"
   xmlns:rdf="http://www.w3.org/1999/02/22-rdf-syntax-ns#"
   xmlns:cc="http://creativecommons.org/ns#"
   xmlns:dc="http://purl.org/dc/elements/1.1/">
  <defs
     id="defs4">
    <linearGradient
       x1="0"
       y1="0"
       x2="1"
       y2="0"
       gradientUnits="userSpaceOnUse"
       gradientTransform="matrix(105.70775,-105.70775,105.70775,105.70775,120.89608,611.46604)"
       spreadMethod="pad"
       id="linearGradient24">
      <stop
         style="stop-opacity:1;stop-color:#eb424a"
         offset="0"
         id="stop26" />
      <stop
         style="stop-opacity:1;stop-color:#ff7500"
         offset="1"
         id="stop28" />
    </linearGradient>
    <linearGradient
       x1="0"
       y1="0"
       x2="1"
       y2="0"
       gradientUnits="userSpaceOnUse"
       gradientTransform="matrix(105.70775,-105.70775,105.70775,105.70775,162.32465,622.89461)"
       spreadMethod="pad"
       id="linearGradient24-5">
      <stop
         style="stop-opacity:1;stop-color:#eb424a"
         offset="0"
         id="stop26-4" />
      <stop
         style="stop-opacity:1;stop-color:#ff7500"
         offset="1"
         id="stop28-2" />
    </linearGradient>
    <clipPath
       clipPathUnits="userSpaceOnUse"
       id="clipPath16">
      <path
         d="M 0.301,43 C 0.301,42.592 0.3,1.723 0.3,1.723 v 0 C 0.3,0.937 0.937,0.3 1.723,0.3 v 0 h 82.554 c 0.786,0 1.423,0.637 1.423,1.423 v 0 V 43 C 85.7,66.582 66.583,85.7 43,85.7 v 0 C 19.417,85.7 0.301,66.582 0.301,43"
         id="path18"
         inkscape:connector-curvature="0" />
    </clipPath>
    <linearGradient
       x1="0"
       y1="0"
       x2="0.99507397"
       y2="0"
       gradientUnits="userSpaceOnUse"
       gradientTransform="matrix(-72.47644,72.47644,72.47644,72.47644,79.238319,-5.327878)"
       spreadMethod="pad"
       id="linearGradient24-6"
       xlink:href="#linearGradient24-5">
      <stop
         style="stop-opacity:1;stop-color:#ffe6f4"
         offset="0"
         id="stop26-3" />
      <stop
         style="stop-opacity:1;stop-color:#ffb3dd"
         offset="1"
         id="stop28-9" />
    </linearGradient>
  </defs>
  <sodipodi:namedview
     id="base"
     pagecolor="#ffffff"
     bordercolor="#666666"
     borderopacity="1.0"
     inkscape:pageopacity="0.0"
     inkscape:pageshadow="2"
     inkscape:zoom="2.9391944"
     inkscape:cx="269.46159"
     inkscape:cy="42.358546"
     inkscape:document-units="px"
     inkscape:current-layer="g8104"
     showgrid="true"
     inkscape:snap-grids="true"
     showguides="true"
     inkscape:snap-page="true"
     inkscape:snap-others="true"
     inkscape:snap-global="true"
     inkscape:snap-bbox="false"
     inkscape:window-width="3456"
     inkscape:window-height="2089"
     inkscape:window-x="0"
     inkscape:window-y="34"
     inkscape:window-maximized="1"
     units="px"
     fit-margin-top="0"
     fit-margin-left="0"
     fit-margin-right="0"
     fit-margin-bottom="0"
     inkscape:pagecheckerboard="0">
    <inkscape:grid
       type="xygrid"
       id="grid4163"
       dotted="false"
       snapvisiblegridlinesonly="true"
       originx="-73.105394"
       originy="-575.1434" />
  </sodipodi:namedview>
  <metadata
     id="metadata7">
    <rdf:RDF>
      <cc:Work
         rdf:about="">
        <dc:format>image/svg+xml</dc:format>
        <dc:type
           rdf:resource="http://purl.org/dc/dcmitype/StillImage" />
      </cc:Work>
    </rdf:RDF>
  </metadata>
  <g
     inkscape:label="Layer 1"
     inkscape:groupmode="layer"
     id="layer1"
     transform="translate(-73.105405,-327.06668)">
    <g
       id="g8104">
      <path
         style="color:#000000;clip-rule:nonzero;display:inline;overflow:visible;visibility:visible;opacity:0.25;isolation:auto;mix-blend-mode:normal;color-interpolation:sRGB;color-interpolation-filters:linearRGB;solid-color:#000000;solid-opacity:1;fill:#ff269b;fill-opacity:1;fill-rule:nonzero;stroke:none;stroke-width:0.474;stroke-linecap:butt;stroke-linejoin:miter;stroke-miterlimit:4;stroke-dasharray:none;stroke-dashoffset:0;stroke-opacity:1;marker:none;color-rendering:auto;image-rendering:auto;shape-rendering:auto;text-rendering:auto;enable-background:accumulate"
         d="M 60.132812,0 C 26.921874,6.2e-4 -4.58e-4,26.923826 0,60.134766 c 6.1672848e-4,33.08831 26.758502,59.923914 59.800781,60.121094 0.130368,0.0113 0.255289,0.0391 0.388672,0.0391 h 20.490235 c 2.492998,0 4.5,-2.007 4.5,-4.5 V 51.628906 c 0,-0.06086 -0.01521,-0.11748 -0.01758,-0.177734 V 41.113281 h -29.46875 v 10.476563 c -0.0078,16.996084 -0.0039,34.00222 -0.0039,51.001956 -22.702396,-2.473 -37.103837,-23.528808 -37.103515,-42.710941 3.08e-4,-18.417396 14.42401,-39.572584 37.130859,-42.03125 v 0.04883 10.990234 h 29.441406 v -10.71875 c 0.0055,-0.09171 0.02734,-0.178335 0.02734,-0.271484 V 4.5 c 0,-2.493 -2.007,-4.5 -4.5,-4.5 h -20.46875 c -0.01807,0 -0.03471,0.00564897 -0.05273,0.00585938 V 0.00195313 Z M 226.16602,4 v 21.359375 h 25.35742 V 4 Z m 123.79882,0 v 21.322266 c -1.63606,-2.794647 -3.70217,-5.273939 -6.21875,-7.423828 C 336.55353,11.705144 326.2094,8.609375 312.7168,8.609375 H 267.43555 V 117.82031 h 27.32617 V 79.929688 h 17.95508 c 13.4926,0 23.83673,-3.072271 31.02929,-9.216797 2.51659,-2.166956 4.58269,-4.664848 6.21875,-7.476563 v 54.583982 h 25.35743 v -9.10937 c 0.92984,1.36466 2.00248,2.64618 3.22656,3.84179 5.14504,4.92538 11.83947,7.38868 20.08203,7.38868 6.09005,0 11.26114,-1.122 15.51367,-3.36524 4.25254,-2.292 8.08552,-5.9243 11.49805,-10.89844 v 12.14258 h 25.59375 V 71.078125 c 0,-3.085084 -0.18185,-5.960119 -0.53321,-8.640625 l 24.37891,58.52734 -0.70898,2.26758 c -1.10251,3.65746 -2.65147,6.1932 -4.64649,7.60742 -1.94251,1.41422 -5.06606,2.12305 -9.37109,2.12305 h -7.95313 v 17.18945 h 14.72657 c 7.29755,0 13.17613,-1.82887 17.63867,-5.48632 4.46253,-3.6087 8.37435,-9.97253 11.73437,-19.0918 l 33.39063,-89.681642 h -25.35742 l -18.11328,55.59375 -21.3418,-55.59375 h -25.43555 l 3.38281,8.121094 c -0.42514,-0.456626 -0.86211,-0.899789 -1.32031,-1.31836 -6.35255,-5.851926 -16.69473,-8.777343 -31.02734,-8.777343 -5.46004,0 -10.94645,0.366163 -16.45899,1.097656 -5.46004,0.68272 -10.92082,1.706812 -16.38086,3.072266 v 19.96875 c 4.04253,-2.24324 8.39973,-3.925262 13.07227,-5.046875 4.67254,-1.12162 9.73918,-1.681641 15.19922,-1.681641 6.66755,0 11.57653,0.975141 14.72656,2.925781 3.20253,1.90188 4.80469,4.925193 4.80469,9.070313 v 2.048828 h -14.96289 c -13.70261,0 -23.75707,2.242036 -30.16211,6.728515 -2.0671,1.447916 -3.79533,3.167208 -5.19531,5.148438 V 4 Z m -175.05468,8.630859 v 23.261719 h -12.59961 v 7.705078 c -7.20278,-6.446056 -16.49396,-9.679687 -27.88672,-9.679687 -13.7026,0 -24.4665,3.828095 -32.28906,11.484375 -7.822564,7.65628 -11.732426,18.165424 -11.732426,31.527344 0,13.605746 3.963058,24.187342 11.890626,31.746092 7.98006,7.50998 19.16177,11.26563 33.54687,11.26563 5.98505,0 11.97004,-0.60898 17.95508,-1.82813 6.03755,-1.17039 12.05011,-2.9268 18.03516,-5.26758 V 92.65625 c -5.88004,3.316093 -11.62854,5.802884 -17.2461,7.46094 -5.56504,1.60928 -11.02581,2.41406 -16.38086,2.41406 -6.61505,0 -11.78614,-1.53516 -15.51367,-4.607422 -3.67502,-3.072267 -5.8014,-7.681645 -6.3789,-13.826172 h 58.59961 v 5.267578 c 0,10.33842 2.10074,17.677396 6.30078,22.017576 4.20003,4.29142 11.31421,6.4375 21.34179,6.4375 h 21.73438 V 99.09375 h -13.07227 c -4.35753,0 -7.27218,-0.657929 -8.74218,-1.974609 -1.41752,-1.365454 -2.125,-3.950153 -2.125,-7.753907 V 54.619141 h 25.81836 v 63.201169 h 25.35742 V 35.892578 H 226.49219 200.34766 V 12.630859 Z m 119.85156,16.386719 h 15.04297 c 5.30254,0 9.39568,1.315846 12.2832,3.949219 2.88753,2.633367 4.33203,6.389012 4.33203,11.265625 0,4.876613 -1.4445,8.655757 -4.33203,11.33789 -2.88752,2.633374 -6.98066,3.949219 -12.2832,3.949219 h -15.04297 z m -160.4961,22.310547 c 4.56755,0 8.24288,1.535162 11.0254,4.607422 2.83502,3.0235 4.25195,7.021947 4.25195,11.996094 h -32.99609 c 0.78749,-5.364274 2.70302,-9.460623 5.74804,-12.289063 3.09752,-2.877193 7.08816,-4.314453 11.9707,-4.314453 z m 36.55665,3.291016 h 4.08789 v 12.80664 c -0.75233,-4.692771 -2.12185,-8.95744 -4.08789,-12.80664 z m 241.66796,26.333984 h 13.15235 v 2.998047 c 0,5.315507 -1.62779,9.754526 -4.88281,13.314453 -3.25502,3.511165 -7.27129,5.265625 -12.04883,5.265625 -3.83253,0 -6.826,-0.92618 -8.97852,-2.779297 -2.15252,-1.90188 -3.22851,-4.510078 -3.22851,-7.826172 0,-3.608693 1.3381,-6.340246 4.01562,-8.193359 2.67753,-1.853113 6.66817,-2.779297 11.9707,-2.779297 z"
         transform="translate(73.105374,327.06668)"
         id="path4207" />
    </g>
  </g>
</svg>
