<?xml version="1.0" encoding="UTF-8" standalone="no"?>
<!-- Created with Inkscape (http://www.inkscape.org/) -->

<svg
   xmlns:dc="http://purl.org/dc/elements/1.1/"
   xmlns:cc="http://creativecommons.org/ns#"
   xmlns:rdf="http://www.w3.org/1999/02/22-rdf-syntax-ns#"
   xmlns:svg="http://www.w3.org/2000/svg"
   xmlns="http://www.w3.org/2000/svg"
   xmlns:sodipodi="http://sodipodi.sourceforge.net/DTD/sodipodi-0.dtd"
   xmlns:inkscape="http://www.inkscape.org/namespaces/inkscape"
   width="27.093334mm"
   height="27.093334mm"
   viewBox="0 0 96.000003 96.000003"
   id="svg17371"
   version="1.1"
   inkscape:version="0.91 r13725"
   sodipodi:docname="icon-l-replay.svg">
  <defs
     id="defs17373" />
  <sodipodi:namedview
     id="base"
     pagecolor="#000000"
     bordercolor="#666666"
     borderopacity="1.0"
     inkscape:pageopacity="0"
     inkscape:pageshadow="2"
     inkscape:zoom="3.959798"
     inkscape:cx="25.879454"
     inkscape:cy="32.849099"
     inkscape:document-units="px"
     inkscape:current-layer="layer1"
     showgrid="false"
     fit-margin-top="0"
     fit-margin-left="0"
     fit-margin-right="0"
     fit-margin-bottom="0"
     inkscape:window-width="1614"
     inkscape:window-height="1115"
     inkscape:window-x="1586"
     inkscape:window-y="572"
     inkscape:window-maximized="0" />
  <metadata
     id="metadata17376">
    <rdf:RDF>
      <cc:Work
         rdf:about="">
        <dc:format>image/svg+xml</dc:format>
        <dc:type
           rdf:resource="http://purl.org/dc/dcmitype/StillImage" />
        <dc:title></dc:title>
      </cc:Work>
    </rdf:RDF>
  </metadata>
  <g
     inkscape:label="Layer 1"
     inkscape:groupmode="layer"
     id="layer1"
     transform="translate(-420.57143,-364.3622)">
    <g
       transform="translate(49.373432,73.682973)"
       id="g8568">
      <rect
         height="96"
         width="96"
         style="opacity:0;fill:#ffffff"
         id="icon-l-play_3_-6-9-3"
         x="371.198"
         y="290.67923" />
      <rect
         height="96"
         width="96"
         style="opacity:0;fill:#ffffff"
         id="icon-l-reboot_1_-8-3-6"
         x="371.198"
         y="290.67923" />
      <circle
         style="opacity:0.15;fill:#ffffff"
         cx="419.198"
         cy="338.68024"
         r="44"
         id="circle12629-5-7-7" />
      <g
         transform="matrix(1,0,0,-1,371.198,387.3136)"
         id="g12664-8-2-5"
         style="opacity:1;fill:#ffffff;fill-opacity:1">
        <path
           inkscape:transform-center-y="-0.71428597"
           inkscape:transform-center-x="-7.1428573"
           id="path12666-5-4-3"
           d="m 46.776611,84.538206 c 5.57695,0.11379 10.98469,-1.03658 15.9043,-3.30859 l 0.0176,0.0371 c 3.68707,-1.68404 6.95615,-3.91335 9.75585,-6.54882 10.99645,-10.35272 14.75442,-26.97119 8.13672,-41.44922 -6.25528,-13.68889 -20.00382,-21.97956 -35.02734,-21.11914 -0.55205,0.0321 -0.97216,0.50604 -0.94141,1.05664 0.0315,0.55133 0.50531,0.97089 1.05664,0.93945 0.85101,-0.0488 1.69603,-0.0634 2.53711,-0.0508 l 0,0.0117 c 0.58962,0.012 1.17603,0.0386 1.75782,0.0801 18.03527,1.28712 32.13436,16.5555 31.75976,34.83398 -0.18655,9.14035 -3.91808,17.65973 -10.51367,23.99024 -6.59559,6.3305 -15.261,9.7142 -24.40039,9.52734 -0.16884,-0.003 -0.33598,-0.008 -0.50195,-0.0117 0.002,-0.0205 0.003,-0.0413 0.004,-0.0625 l 0.24414,-12.0293 c 0.005,-0.32346 -0.1436,-0.63232 -0.40625,-0.82617 -0.26264,-0.19385 -0.60373,-0.24531 -0.91211,-0.14258 l -19.63671,6.57422 c -0.34336,0.11484 -0.59913,0.40601 -0.66602,0.76172 -0.0663,0.35761 0.0639,0.72109 0.3418,0.95313 6.83704,5.72963 14.69963,6.64461 21.49023,6.7832 z m -2.45703,-2.09766 c -7.04575,-0.40822 -12.00476,-1.95733 -16.3125,-5.09375 l 16.5293,-5.53515 -0.2168,10.60937 c 2e-4,0.007 1e-4,0.0132 0,0.0195 z"
           style="fill:#ffffff;fill-opacity:1"
           inkscape:connector-curvature="0" />
      </g>
      <path
         sodipodi:nodetypes="cscssccssscc"
         inkscape:connector-curvature="0"
         d="m 412.1984,341.68044 -9.00005,0 c -0.27719,0 -0.5268,-0.11243 -0.70711,-0.29275 -0.18102,-0.18102 -0.29274,-0.43133 -0.29274,-0.7071 0,-0.55296 0.44689,-0.99985 0.99985,-0.99985 l 9.00005,0 9.9992,-7.1e-4 9.00006,0 c 0.55295,0 0.99984,0.44689 0.99984,0.99985 0,0.55296 -0.44689,0.99985 -0.99984,0.99985 l -9.00006,0 z"
         style="opacity:0.6;fill:#ffffff"
         id="path8227-7-5" />
    </g>
  </g>
</svg>
